# xmcd
#
# Track frame offsets:
#	150
#	13326
#	32925
#	48417
#	65920
#	81663
#	97626
#	114435
#	128228
#	146493
#	162591
#	178359
#	192765
#	212786
#	229581
#	246951
#	264366
#	280475
#	296393
#	313261
#
# Disc length: 4415 seconds
#
# Revision: 0
# Processed by: cddbd v1.5.2PL0 Copyright (c) Steve Scherf et al.
# Submitted via: EZCDAudioConverter 2.1.5.1
#
DISCID=36113d14
DTITLE=Various Artist - Intiaanikesä Vol3 cd2
DYEAR=2011
DGENRE=
TTITLE0=Poju - Poika (saunoo)
TTITLE1=Culture Beat - Mr. Vain
TTITLE2=Gipsy Kings - Bamboleo
TTITLE3=Pachanga - I Don't Like Reggae-ton
TTITLE4=Soul Captain Band - Vauvantekohomma
TTITLE5=Ace Of Base - All That She Wants
TTITLE6=Kate Ryan - Desenchantee
TTITLE7=Armin Van Buuren feat. Sharon Del Adel - In and Out of Love
TTITLE8=Melodie MC/Roberto Romboni - Anyone Out There
TTITLE9=Eddy Wata - I Like The Way
TTITLE10=Vinyl Shakerz - One Night In Bangkok (Vinyl Shakerz Screen Cut)
TTITLE11=Jean S. - Kun Chicago kuoli (The Night Chicago Died)
TTITLE12=Apulanta - Hiekka
TTITLE13=In-Grid - Tu Es Foutu
TTITLE14=Ann Lee - 2 Times
TTITLE15=Robert Miles - Children
TTITLE16=2 Unlimited - No Limits
TTITLE17=EMF - Unbelievable
TTITLE18=Laidback - Sunshine Reggae
TTITLE19=Eagle-Eye Cherry - Save Tonight
EXTD=
EXTT0=
EXTT1=
EXTT2=
EXTT3=
EXTT4=
EXTT5=
EXTT6=
EXTT7=
EXTT8=
EXTT9=
EXTT10=
EXTT11=
EXTT12=
EXTT13=
EXTT14=
EXTT15=
EXTT16=
EXTT17=
EXTT18=
EXTT19=
PLAYORDER=
